# Tiled2Unity generated file. Do not modify by hand.
# Wavefront file for 'fuckingworkpls2_mesh_0006.obj'

# Vertices (Count = 128)
v -53 -57 0
v -53.5 -57 0
v -53.5 -56.5 0
v -53 -56.5 0
v -53.5 -57 0
v -54 -57 0
v -54 -56.5 0
v -53.5 -56.5 0
v -54 -57 0
v -54.5 -57 0
v -54.5 -56.5 0
v -54 -56.5 0
v -54.5 -57 0
v -55 -57 0
v -55 -56.5 0
v -54.5 -56.5 0
v -53 -57.5 0
v -53.5 -57.5 0
v -53.5 -57 0
v -53 -57 0
v -53.5 -57.5 0
v -54 -57.5 0
v -54 -57 0
v -53.5 -57 0
v -54 -57.5 0
v -54.5 -57.5 0
v -54.5 -57 0
v -54 -57 0
v -54.5 -57.5 0
v -55 -57.5 0
v -55 -57 0
v -54.5 -57 0
v -53 -58 0
v -53.5 -58 0
v -53.5 -57.5 0
v -53 -57.5 0
v -53.5 -58 0
v -54 -58 0
v -54 -57.5 0
v -53.5 -57.5 0
v -54 -58 0
v -54.5 -58 0
v -54.5 -57.5 0
v -54 -57.5 0
v -54.5 -58 0
v -55 -58 0
v -55 -57.5 0
v -54.5 -57.5 0
v -53 -58.5 0
v -53.5 -58.5 0
v -53.5 -58 0
v -53 -58 0
v -53.5 -58.5 0
v -54 -58.5 0
v -54 -58 0
v -53.5 -58 0
v -54 -58.5 0
v -54.5 -58.5 0
v -54.5 -58 0
v -54 -58 0
v -54.5 -58.5 0
v -55 -58.5 0
v -55 -58 0
v -54.5 -58 0
v -48 -62.5 0
v -48.5 -62.5 0
v -48.5 -62 0
v -48 -62 0
v -48.5 -62.5 0
v -49 -62.5 0
v -49 -62 0
v -48.5 -62 0
v -49 -62.5 0
v -49.5 -62.5 0
v -49.5 -62 0
v -49 -62 0
v -49.5 -62.5 0
v -50 -62.5 0
v -50 -62 0
v -49.5 -62 0
v -48 -63 0
v -48.5 -63 0
v -48.5 -62.5 0
v -48 -62.5 0
v -48.5 -63 0
v -49 -63 0
v -49 -62.5 0
v -48.5 -62.5 0
v -49 -63 0
v -49.5 -63 0
v -49.5 -62.5 0
v -49 -62.5 0
v -49.5 -63 0
v -50 -63 0
v -50 -62.5 0
v -49.5 -62.5 0
v -48 -63.5 0
v -48.5 -63.5 0
v -48.5 -63 0
v -48 -63 0
v -48.5 -63.5 0
v -49 -63.5 0
v -49 -63 0
v -48.5 -63 0
v -49 -63.5 0
v -49.5 -63.5 0
v -49.5 -63 0
v -49 -63 0
v -49.5 -63.5 0
v -50 -63.5 0
v -50 -63 0
v -49.5 -63 0
v -48 -64 0
v -48.5 -64 0
v -48.5 -63.5 0
v -48 -63.5 0
v -48.5 -64 0
v -49 -64 0
v -49 -63.5 0
v -48.5 -63.5 0
v -49 -64 0
v -49.5 -64 0
v -49.5 -63.5 0
v -49 -63.5 0
v -49.5 -64 0
v -50 -64 0
v -50 -63.5 0
v -49.5 -63.5 0

# Texture cooridinates (Count = 25)
vt 0.75 0.875
vt 0.78125 0.875
vt 0.78125 0.9166667
vt 0.75 0.9166667
vt 0.8125 0.875
vt 0.8125 0.9166667
vt 0.84375 0.875
vt 0.84375 0.9166667
vt 0.875 0.875
vt 0.875 0.9166667
vt 0.75 0.8333333
vt 0.78125 0.8333333
vt 0.8125 0.8333333
vt 0.84375 0.8333333
vt 0.875 0.8333333
vt 0.75 0.7916667
vt 0.78125 0.7916667
vt 0.8125 0.7916667
vt 0.84375 0.7916667
vt 0.875 0.7916667
vt 0.75 0.75
vt 0.78125 0.75
vt 0.8125 0.75
vt 0.84375 0.75
vt 0.875 0.75

# Normal
vn 0 0 -1

# Mesh description
g fuckingworkpls2_mesh_0006

# Faces
f 1/1/1 2/2/1 3/3/1 4/4/1
f 5/2/1 6/5/1 7/6/1 8/3/1
f 9/5/1 10/7/1 11/8/1 12/6/1
f 13/7/1 14/9/1 15/10/1 16/8/1
f 17/11/1 18/12/1 19/2/1 20/1/1
f 21/12/1 22/13/1 23/5/1 24/2/1
f 25/13/1 26/14/1 27/7/1 28/5/1
f 29/14/1 30/15/1 31/9/1 32/7/1
f 33/16/1 34/17/1 35/12/1 36/11/1
f 37/17/1 38/18/1 39/13/1 40/12/1
f 41/18/1 42/19/1 43/14/1 44/13/1
f 45/19/1 46/20/1 47/15/1 48/14/1
f 49/21/1 50/22/1 51/17/1 52/16/1
f 53/22/1 54/23/1 55/18/1 56/17/1
f 57/23/1 58/24/1 59/19/1 60/18/1
f 61/24/1 62/25/1 63/20/1 64/19/1
f 65/1/1 66/2/1 67/3/1 68/4/1
f 69/2/1 70/5/1 71/6/1 72/3/1
f 73/5/1 74/7/1 75/8/1 76/6/1
f 77/7/1 78/9/1 79/10/1 80/8/1
f 81/11/1 82/12/1 83/2/1 84/1/1
f 85/12/1 86/13/1 87/5/1 88/2/1
f 89/13/1 90/14/1 91/7/1 92/5/1
f 93/14/1 94/15/1 95/9/1 96/7/1
f 97/16/1 98/17/1 99/12/1 100/11/1
f 101/17/1 102/18/1 103/13/1 104/12/1
f 105/18/1 106/19/1 107/14/1 108/13/1
f 109/19/1 110/20/1 111/15/1 112/14/1
f 113/21/1 114/22/1 115/17/1 116/16/1
f 117/22/1 118/23/1 119/18/1 120/17/1
f 121/23/1 122/24/1 123/19/1 124/18/1
f 125/24/1 126/25/1 127/20/1 128/19/1

