# Tiled2Unity generated file. Do not modify by hand.
# Wavefront file for 'fuckingworkpls3_mesh_0009.obj'

# Vertices (Count = 192)
v -85 -15 0
v -85.5 -15 0
v -85.5 -14.5 0
v -85 -14.5 0
v -85.5 -15 0
v -86 -15 0
v -86 -14.5 0
v -85.5 -14.5 0
v -85 -15.5 0
v -85.5 -15.5 0
v -85.5 -15 0
v -85 -15 0
v -85.5 -15.5 0
v -86 -15.5 0
v -86 -15 0
v -85.5 -15 0
v -60.5 -17 0
v -61 -17 0
v -61 -16.5 0
v -60.5 -16.5 0
v -61 -17 0
v -61.5 -17 0
v -61.5 -16.5 0
v -61 -16.5 0
v -60.5 -17.5 0
v -61 -17.5 0
v -61 -17 0
v -60.5 -17 0
v -61 -17.5 0
v -61.5 -17.5 0
v -61.5 -17 0
v -61 -17 0
v -79 -19 0
v -79.5 -19 0
v -79.5 -18.5 0
v -79 -18.5 0
v -79.5 -19 0
v -80 -19 0
v -80 -18.5 0
v -79.5 -18.5 0
v -79 -19.5 0
v -79.5 -19.5 0
v -79.5 -19 0
v -79 -19 0
v -79.5 -19.5 0
v -80 -19.5 0
v -80 -19 0
v -79.5 -19 0
v -102.5 -35 0
v -103 -35 0
v -103 -34.5 0
v -102.5 -34.5 0
v -103 -35 0
v -103.5 -35 0
v -103.5 -34.5 0
v -103 -34.5 0
v -112 -35 0
v -112.5 -35 0
v -112.5 -34.5 0
v -112 -34.5 0
v -112.5 -35 0
v -113 -35 0
v -113 -34.5 0
v -112.5 -34.5 0
v -102.5 -35.5 0
v -103 -35.5 0
v -103 -35 0
v -102.5 -35 0
v -103 -35.5 0
v -103.5 -35.5 0
v -103.5 -35 0
v -103 -35 0
v -112 -35.5 0
v -112.5 -35.5 0
v -112.5 -35 0
v -112 -35 0
v -112.5 -35.5 0
v -113 -35.5 0
v -113 -35 0
v -112.5 -35 0
v -112.5 -45 0
v -113 -45 0
v -113 -44.5 0
v -112.5 -44.5 0
v -113 -45 0
v -113.5 -45 0
v -113.5 -44.5 0
v -113 -44.5 0
v -112.5 -45.5 0
v -113 -45.5 0
v -113 -45 0
v -112.5 -45 0
v -113 -45.5 0
v -113.5 -45.5 0
v -113.5 -45 0
v -113 -45 0
v -42.5 -47 0
v -43 -47 0
v -43 -46.5 0
v -42.5 -46.5 0
v -43 -47 0
v -43.5 -47 0
v -43.5 -46.5 0
v -43 -46.5 0
v -42.5 -47.5 0
v -43 -47.5 0
v -43 -47 0
v -42.5 -47 0
v -43 -47.5 0
v -43.5 -47.5 0
v -43.5 -47 0
v -43 -47 0
v -34.5 -50 0
v -35 -50 0
v -35 -49.5 0
v -34.5 -49.5 0
v -35 -50 0
v -35.5 -50 0
v -35.5 -49.5 0
v -35 -49.5 0
v -34.5 -50.5 0
v -35 -50.5 0
v -35 -50 0
v -34.5 -50 0
v -35 -50.5 0
v -35.5 -50.5 0
v -35.5 -50 0
v -35 -50 0
v -24.5 -56.5 0
v -25 -56.5 0
v -25 -56 0
v -24.5 -56 0
v -25 -56.5 0
v -25.5 -56.5 0
v -25.5 -56 0
v -25 -56 0
v -24.5 -57 0
v -25 -57 0
v -25 -56.5 0
v -24.5 -56.5 0
v -25 -57 0
v -25.5 -57 0
v -25.5 -56.5 0
v -25 -56.5 0
v -42.5 -61 0
v -43 -61 0
v -43 -60.5 0
v -42.5 -60.5 0
v -43 -61 0
v -43.5 -61 0
v -43.5 -60.5 0
v -43 -60.5 0
v -42.5 -61.5 0
v -43 -61.5 0
v -43 -61 0
v -42.5 -61 0
v -43 -61.5 0
v -43.5 -61.5 0
v -43.5 -61 0
v -43 -61 0
v -26.5 -65 0
v -27 -65 0
v -27 -64.5 0
v -26.5 -64.5 0
v -27 -65 0
v -27.5 -65 0
v -27.5 -64.5 0
v -27 -64.5 0
v -38.5 -65 0
v -39 -65 0
v -39 -64.5 0
v -38.5 -64.5 0
v -39 -65 0
v -39.5 -65 0
v -39.5 -64.5 0
v -39 -64.5 0
v -26.5 -65.5 0
v -27 -65.5 0
v -27 -65 0
v -26.5 -65 0
v -27 -65.5 0
v -27.5 -65.5 0
v -27.5 -65 0
v -27 -65 0
v -38.5 -65.5 0
v -39 -65.5 0
v -39 -65 0
v -38.5 -65 0
v -39 -65.5 0
v -39.5 -65.5 0
v -39.5 -65 0
v -39 -65 0

# Texture cooridinates (Count = 9)
vt 0.375 0.7083334
vt 0.40625 0.7083334
vt 0.40625 0.75
vt 0.375 0.75
vt 0.4375 0.7083334
vt 0.4375 0.75
vt 0.375 0.6666666
vt 0.40625 0.6666666
vt 0.4375 0.6666666

# Normal
vn 0 0 -1

# Mesh description
g fuckingworkpls3_mesh_0009

# Faces
f 1/1/1 2/2/1 3/3/1 4/4/1
f 5/2/1 6/5/1 7/6/1 8/3/1
f 9/7/1 10/8/1 11/2/1 12/1/1
f 13/8/1 14/9/1 15/5/1 16/2/1
f 17/1/1 18/2/1 19/3/1 20/4/1
f 21/2/1 22/5/1 23/6/1 24/3/1
f 25/7/1 26/8/1 27/2/1 28/1/1
f 29/8/1 30/9/1 31/5/1 32/2/1
f 33/1/1 34/2/1 35/3/1 36/4/1
f 37/2/1 38/5/1 39/6/1 40/3/1
f 41/7/1 42/8/1 43/2/1 44/1/1
f 45/8/1 46/9/1 47/5/1 48/2/1
f 49/1/1 50/2/1 51/3/1 52/4/1
f 53/2/1 54/5/1 55/6/1 56/3/1
f 57/1/1 58/2/1 59/3/1 60/4/1
f 61/2/1 62/5/1 63/6/1 64/3/1
f 65/7/1 66/8/1 67/2/1 68/1/1
f 69/8/1 70/9/1 71/5/1 72/2/1
f 73/7/1 74/8/1 75/2/1 76/1/1
f 77/8/1 78/9/1 79/5/1 80/2/1
f 81/1/1 82/2/1 83/3/1 84/4/1
f 85/2/1 86/5/1 87/6/1 88/3/1
f 89/7/1 90/8/1 91/2/1 92/1/1
f 93/8/1 94/9/1 95/5/1 96/2/1
f 97/1/1 98/2/1 99/3/1 100/4/1
f 101/2/1 102/5/1 103/6/1 104/3/1
f 105/7/1 106/8/1 107/2/1 108/1/1
f 109/8/1 110/9/1 111/5/1 112/2/1
f 113/1/1 114/2/1 115/3/1 116/4/1
f 117/2/1 118/5/1 119/6/1 120/3/1
f 121/7/1 122/8/1 123/2/1 124/1/1
f 125/8/1 126/9/1 127/5/1 128/2/1
f 129/1/1 130/2/1 131/3/1 132/4/1
f 133/2/1 134/5/1 135/6/1 136/3/1
f 137/7/1 138/8/1 139/2/1 140/1/1
f 141/8/1 142/9/1 143/5/1 144/2/1
f 145/1/1 146/2/1 147/3/1 148/4/1
f 149/2/1 150/5/1 151/6/1 152/3/1
f 153/7/1 154/8/1 155/2/1 156/1/1
f 157/8/1 158/9/1 159/5/1 160/2/1
f 161/1/1 162/2/1 163/3/1 164/4/1
f 165/2/1 166/5/1 167/6/1 168/3/1
f 169/1/1 170/2/1 171/3/1 172/4/1
f 173/2/1 174/5/1 175/6/1 176/3/1
f 177/7/1 178/8/1 179/2/1 180/1/1
f 181/8/1 182/9/1 183/5/1 184/2/1
f 185/7/1 186/8/1 187/2/1 188/1/1
f 189/8/1 190/9/1 191/5/1 192/2/1

