# Tiled2Unity generated file. Do not modify by hand.
# Wavefront file for 'fuckingworkpls_mesh_0015.obj'

# Vertices (Count = 64)
v -86 -46.5 0
v -86.5 -46.5 0
v -86.5 -46 0
v -86 -46 0
v -86.5 -46.5 0
v -87 -46.5 0
v -87 -46 0
v -86.5 -46 0
v -86 -47 0
v -86.5 -47 0
v -86.5 -46.5 0
v -86 -46.5 0
v -86.5 -47 0
v -87 -47 0
v -87 -46.5 0
v -86.5 -46.5 0
v -87 -47.5 0
v -87.5 -47.5 0
v -87.5 -47 0
v -87 -47 0
v -87.5 -47.5 0
v -88 -47.5 0
v -88 -47 0
v -87.5 -47 0
v -87 -48 0
v -87.5 -48 0
v -87.5 -47.5 0
v -87 -47.5 0
v -87.5 -48 0
v -88 -48 0
v -88 -47.5 0
v -87.5 -47.5 0
v -83 -51.5 0
v -83.5 -51.5 0
v -83.5 -51 0
v -83 -51 0
v -83.5 -51.5 0
v -84 -51.5 0
v -84 -51 0
v -83.5 -51 0
v -83 -52 0
v -83.5 -52 0
v -83.5 -51.5 0
v -83 -51.5 0
v -83.5 -52 0
v -84 -52 0
v -84 -51.5 0
v -83.5 -51.5 0
v -82 -52.5 0
v -82.5 -52.5 0
v -82.5 -52 0
v -82 -52 0
v -82.5 -52.5 0
v -83 -52.5 0
v -83 -52 0
v -82.5 -52 0
v -82 -53 0
v -82.5 -53 0
v -82.5 -52.5 0
v -82 -52.5 0
v -82.5 -53 0
v -83 -53 0
v -83 -52.5 0
v -82.5 -52.5 0

# Texture cooridinates (Count = 4)
vt 0.34375 0.09375
vt 0.375 0.09375
vt 0.375 0.125
vt 0.34375 0.125

# Normal
vn 0 0 -1

# Mesh description
g fuckingworkpls_mesh_0015

# Faces
f 1/1/1 2/2/1 3/3/1 4/4/1
f 5/1/1 6/2/1 7/3/1 8/4/1
f 9/1/1 10/2/1 11/3/1 12/4/1
f 13/1/1 14/2/1 15/3/1 16/4/1
f 17/1/1 18/2/1 19/3/1 20/4/1
f 21/1/1 22/2/1 23/3/1 24/4/1
f 25/1/1 26/2/1 27/3/1 28/4/1
f 29/1/1 30/2/1 31/3/1 32/4/1
f 33/1/1 34/2/1 35/3/1 36/4/1
f 37/1/1 38/2/1 39/3/1 40/4/1
f 41/1/1 42/2/1 43/3/1 44/4/1
f 45/1/1 46/2/1 47/3/1 48/4/1
f 49/1/1 50/2/1 51/3/1 52/4/1
f 53/1/1 54/2/1 55/3/1 56/4/1
f 57/1/1 58/2/1 59/3/1 60/4/1
f 61/1/1 62/2/1 63/3/1 64/4/1

